<svg width="28" height="28" viewBox="0 0 28 28" fill="none" xmlns="http://www.w3.org/2000/svg">
<path d="M19.3667 6.79C18.5693 5.87945 18.1299 4.7103 18.13 3.5H14.525V17.9667C14.4978 18.7497 14.1674 19.4916 13.6037 20.0357C13.0399 20.5799 12.2869 20.8838 11.5033 20.8833C9.84667 20.8833 8.47 19.53 8.47 17.85C8.47 15.8433 10.4067 14.3383 12.4017 14.9567V11.27C8.37667 10.7333 4.85333 13.86 4.85333 17.85C4.85333 21.735 8.07333 24.5 11.4917 24.5C15.155 24.5 18.13 21.525 18.13 17.85V10.5117C19.5918 11.5615 21.3469 12.1248 23.1467 12.1217V8.51667C23.1467 8.51667 20.9533 8.62167 19.3667 6.79Z" fill="#6F7770"/>
</svg>
